<?xml version="1.0" encoding="UTF-8"?>
<!DOCTYPE svg PUBLIC "-//W3C//DTD SVG 1.1//EN" "http://www.w3.org/Graphics/SVG/1.1/DTD/svg11.dtd">
<svg xmlns="http://www.w3.org/2000/svg" version="1.1" width="1080px" height="1080px" style="shape-rendering:geometricPrecision; text-rendering:geometricPrecision; image-rendering:optimizeQuality; fill-rule:evenodd; clip-rule:evenodd" xmlns:xlink="http://www.w3.org/1999/xlink">
<g><path style="opacity:0.967" fill="#000000" d="M 734.5,419.5 C 745.167,419.5 755.833,419.5 766.5,419.5C 766.5,486.833 766.5,554.167 766.5,621.5C 756.81,621.832 747.144,621.498 737.5,620.5C 736.537,614.205 735.703,607.872 735,601.5C 724.196,617.488 709.029,625.488 689.5,625.5C 656.148,623.98 635.648,606.98 628,574.5C 623.093,549.92 627.427,527.254 641,506.5C 659.243,485.977 681.743,479.143 708.5,486C 719.006,488.996 727.506,494.829 734,503.5C 734.5,475.502 734.667,447.502 734.5,419.5 Z M 689.5,512.5 C 721.509,513.016 736.342,529.349 734,561.5C 731.841,576.977 723.674,587.81 709.5,594C 684.675,600.177 668.175,591.344 660,567.5C 655.897,549.894 659.73,534.394 671.5,521C 676.99,516.902 682.99,514.069 689.5,512.5 Z"/></g>
<g><path style="opacity:0.866" fill="#000000" d="M 248.5,421.5 C 259.833,421.5 271.167,421.5 282.5,421.5C 282.5,488.5 282.5,555.5 282.5,622.5C 270.833,622.5 259.167,622.5 247.5,622.5C 247.667,610.495 247.5,598.495 247,586.5C 241.632,579.787 235.799,573.454 229.5,567.5C 218.152,585.52 206.819,603.52 195.5,621.5C 182.851,622.499 170.184,622.832 157.5,622.5C 157.343,621.127 157.51,619.793 158,618.5C 174.061,592.865 190.228,567.365 206.5,542C 189.998,525.832 173.832,509.332 158,492.5C 156.991,490.975 156.491,489.308 156.5,487.5C 170.183,487.167 183.85,487.501 197.5,488.5C 213.833,505.833 230.167,523.167 246.5,540.5C 247.172,500.766 247.839,461.1 248.5,421.5 Z"/></g>
<g><path style="opacity:0.953" fill="#000000" d="M 546.5,483.5 C 598.094,483.764 622.761,509.764 620.5,561.5C 586.843,562.393 553.176,562.726 519.5,562.5C 522.674,589.821 538.007,601.654 565.5,598C 578.121,596.721 586.454,590.221 590.5,578.5C 600.5,578.5 610.5,578.5 620.5,578.5C 614.792,604.372 598.792,619.538 572.5,624C 544.183,629.119 520.683,620.952 502,599.5C 487.635,576.667 484.635,552.334 493,526.5C 502.777,502.041 520.611,487.708 546.5,483.5 Z M 546.5,510.5 C 561.95,507.81 574.45,512.477 584,524.5C 586.829,529.812 588.329,535.479 588.5,541.5C 565.833,541.5 543.167,541.5 520.5,541.5C 521.989,525.021 530.655,514.687 546.5,510.5 Z"/></g>
<g><path style="opacity:0.961" fill="#000000" d="M 848.5,483.5 C 894.644,484.98 919.644,508.647 923.5,554.5C 920.144,598.689 896.311,622.356 852,625.5C 807.328,622.661 783.495,598.994 780.5,554.5C 781.535,519.252 798.868,496.419 832.5,486C 837.988,485.226 843.321,484.393 848.5,483.5 Z M 845.5,512.5 C 878.549,513.392 893.382,530.392 890,563.5C 884.541,587.148 869.707,597.981 845.5,596C 823.771,590.584 812.771,576.584 812.5,554C 813.45,531.909 824.45,518.076 845.5,512.5 Z"/></g>
<g><path style="opacity:0.96" fill="#000000" d="M 286.5,488.5 C 297.654,487.505 308.988,487.172 320.5,487.5C 329.652,517.452 338.486,547.452 347,577.5C 355.056,547.499 364.222,517.833 374.5,488.5C 385.5,487.167 396.5,487.167 407.5,488.5C 417.448,518.178 426.282,548.178 434,578.5C 442.864,548.074 452.031,517.74 461.5,487.5C 472.853,487.168 484.186,487.501 495.5,488.5C 480.364,532.575 465.031,576.575 449.5,620.5C 439.188,621.499 428.855,621.832 418.5,621.5C 408.63,590.722 399.463,559.722 391,528.5C 381.943,559.339 372.276,590.006 362,620.5C 351.333,621.833 340.667,621.833 330,620.5C 315.562,576.355 301.062,532.355 286.5,488.5 Z"/></g>
</svg>
